#!OML:ASF F:\VICON\USERDATA\INSTALL\rory3\rory3.ASF
:FULLY-SPECIFIED
:DEGREES
113
root -0.117624 18.3671 34.6945 4.62291 -5.41869 1.8409
lowerback 10.8646 -3.96801 -4.81811
upperback 0.137501 -5.89323 -0.285835
thorax -5.47932 -2.7744 3.28247
lowerneck -8.39033 3.99636 1.11058
upperneck -4.85172 5.18382 -1.33313
head -0.055005 2.5594 -0.461948
rclavicle 9.00495e-014 2.78299e-014
rhumerus -62.4782 4.63555 -84.1417
rradius 96.9851
rwrist -9.08644
rhand -37.7177 35.0027
rfingers 7.12502
rthumb -10.767 5.29864
lclavicle 9.00495e-014 2.78299e-014
lhumerus -18.0874 -24.5399 87.7478
lradius 119.455
lwrist 29.3207
lhand -33.5765 5.68878
lfingers 7.12502
lthumb -6.77075 35.5605
rfemur -40.8206 7.81975 17.2541
rtibia 39.2361
rfoot 3.31402 -2.71312
rtoes -8.65993
lfemur 35.7331 -4.10318 -29.4029
ltibia 3.18055e-014
lfoot 36.3611 2.27981
ltoes -8.50303
114
root -0.115115 18.3579 35.225 4.72157 -5.63421 2.29711
lowerback 10.9397 -3.84346 -5.015
upperback -0.0248631 -5.7702 -0.395949
thorax -5.69657 -2.69915 3.27458
lowerneck -8.20466 3.911 0.933377
upperneck -5.10028 5.08648 -1.228
head -0.170281 2.5147 -0.410622
rclavicle 3.97569e-014 7.95139e-016
rhumerus -62.6094 4.02547 -84.0054
rradius 97.1057
rwrist -9.06057
rhand -38.1938 35.1466
rfingers 7.12502
rthumb -11.2262 5.46695
lclavicle 3.97569e-014 7.95139e-016
lhumerus -18.8434 -25.1988 88.3811
lradius 119.164
lwrist 28.2796
lhand -33.0687 4.31494
lfingers 7.12502
lthumb -6.28052 34.2018
rfemur -39.9545 8.34983 16.5718
rtibia 35.139
rfoot 3.26847 -4.17016
rtoes -10.8351
lfemur 35.2187 -4.38892 -30.5224
ltibia 2.95722
lfoot 35.3979 2.60162
ltoes -7.22439
115
root -0.111419 18.3392 35.7614 4.66833 -5.80486 3.14113
lowerback 10.9874 -3.7419 -5.59363
upperback -0.168516 -5.7317 -0.610409
thorax -5.84662 -2.65795 3.37578
lowerneck -7.57943 3.9351 0.864494
upperneck -5.4917 5.12282 -1.45511
head -0.384519 2.53621 -0.48546
rclavicle -2.00276e-014 -3.57812e-015
rhumerus -62.9391 3.67277 -83.9111
rradius 97.363
rwrist -9.19253
rhand -38.0554 35.3214
rfingers 7.12502
rthumb -11.0927 5.63456
lclavicle -2.00276e-014 -3.57812e-015
lhumerus -19.881 -25.785 89.1535
lradius 118.915
lwrist 27.0967
lhand -33.2348 3.77665
lfingers 7.12502
lthumb -6.44088 33.6587
rfemur -38.877 8.58961 15.6001
rtibia 31.5179
rfoot 2.6516 -5.71927
rtoes -10.9078
lfemur 31.3983 -4.72858 -32.2277
ltibia 12.581
lfoot 31.6462 2.45406
ltoes -7.71432
116
root -0.113042 18.3068 36.3067 4.54059 -6.06116 3.26091
lowerback 11.234 -3.67061 -5.54036
upperback -0.296374 -5.65326 -0.617292
thorax -6.13444 -2.60724 3.3554
lowerneck -7.23237 4.00174 0.830194
upperneck -5.61554 5.21065 -1.68163
head -0.470994 2.58236 -0.556237
rclavicle -2.20154e-014 7.15625e-015
rhumerus -63.0982 3.51618 -83.8802
rradius 97.2913
rwrist -9.27586
rhand -37.4665 35.4937
rfingers 7.12502
rthumb -10.5247 5.77718
lclavicle -2.20154e-014 7.15625e-015
lhumerus -21.2258 -25.8291 89.9425
lradius 118.655
lwrist 25.6078
lhand -33.3633 4.82534
lfingers 7.12502
lthumb -6.56497 34.7036
rfemur -37.4999 8.85624 15.6038
rtibia 28.2715
rfoot 1.74726 -7.40732
rtoes -8.25113
lfemur 29.1448 -5.01118 -32.9563
ltibia 19.4492
lfoot 29.1162 2.1718
ltoes -8.65597
117
root -0.122083 18.2689 36.8392 4.67686 -6.53407 2.47164
lowerback 11.9156 -3.53477 -4.61981
upperback -0.722833 -5.39371 -0.418681
thorax -7.06146 -2.46585 3.09235
lowerneck -7.04612 3.96397 0.82926
upperneck -5.53402 5.16215 -1.71209
head -0.47537 2.55878 -0.569103
rclavicle -3.37934e-014 -2.38542e-015
rhumerus -63.5481 3.34949 -83.9703
rradius 97.1998
rwrist -9.1512
rhand -37.2807 35.6099
rfingers 7.12502
rthumb -10.3455 5.88439
lclavicle -3.37934e-014 -2.38542e-015
lhumerus -22.9401 -25.497 90.7317
lradius 118.332
lwrist 24.8813
lhand -33.4616 5.29586
lfingers 7.12502
lthumb -6.65987 35.1711
rfemur -36.2782 9.39567 16.7276
rtibia 25.4763
rfoot 1.11462 -9.23557
rtoes -5.64012
lfemur 26.8284 -5.16201 -32.5097
ltibia 25.8488
lfoot 28.6758 1.157
ltoes -12.8898
118
root -0.127593 18.224 37.361 4.86355 -6.99603 1.4373
lowerback 11.5021 -3.37654 -3.57665
upperback -0.415066 -4.98437 -0.0918062
thorax -6.58763 -2.31825 2.74546
lowerneck -6.85968 3.81964 0.480441
upperneck -6.34703 4.98298 -1.68433
head -0.765631 2.47824 -0.523801
rclavicle -9.39258e-015 7.15625e-015
rhumerus -62.6576 3.00133 -83.8944
rradius 97.0397
rwrist -9.01521
rhand -36.9004 35.6141
rfingers 7.12502
rthumb -9.97855 5.87063
lclavicle -9.39258e-015 7.15625e-015
lhumerus -23.2413 -25.3574 90.949
lradius 117.613
lwrist 23.7844
lhand -33.5011 5.19995
lfingers 7.12502
lthumb -6.698 35.074
rfemur -35.0853 9.56958 18.3348
rtibia 23.3032
rfoot 1.00912 -10.8352
rtoes -6.25953
lfemur 24.4554 -4.0648 -31.0531
ltibia 32.0399
lfoot 28.4315 -0.656761
ltoes -12.921
119
root -0.123977 18.1653 37.8842 4.72595 -7.37646 0.580393
lowerback 10.7842 -3.22784 -2.69346
upperback 0.395117 -4.60769 0.221299
thorax -5.39339 -2.19761 2.43687
lowerneck -6.99551 3.7536 0.160339
upperneck -7.2142 4.89682 -1.80357
head -1.01754 2.44474 -0.520604
rclavicle -4.3186e-014 1.09332e-014
rhumerus -60.8827 2.7931 -83.8311
rradius 96.8141
rwrist -9.2791
rhand -36.8626 35.3248
rfingers 7.12502
rthumb -9.94211 5.57956
lclavicle -4.3186e-014 1.09332e-014
lhumerus -22.5413 -25.181 90.7373
lradius 116.343
lwrist 22.2252
lhand -33.5809 3.98665
lfingers 7.12502
lthumb -6.77497 33.8583
rfemur -33.4981 9.02077 20.0909
rtibia 21.7904
rfoot 1.63243 -11.5743
rtoes -7.85278
lfemur 22.4395 -2.99186 -29.796
ltibia 38.1031
lfoot 28.3976 -1.79027
ltoes -9.4902
120
root -0.112553 18.0852 38.4106 4.12297 -7.58128 0.417494
lowerback 11.4554 -3.12837 -2.41379
upperback 0.460982 -4.44635 0.396702
thorax -5.71558 -2.11556 2.48386
lowerneck -6.53835 3.74316 -0.307798
upperneck -7.32698 4.9168 -1.59513
head -1.14314 2.46746 -0.393483
rclavicle 1.40392e-014 -2.44505e-014
rhumerus -60.3704 3.07294 -83.7788
rradius 96.7967
rwrist -9.53762
rhand -36.7676 34.6601
rfingers 7.12502
rthumb -9.85044 4.91054
lclavicle 1.40392e-014 -2.44505e-014
lhumerus -23.5776 -24.4194 91.3572
lradius 115.205
lwrist 20.5578
lhand -33.4321 3.22148
lfingers 7.12502
lthumb -6.63132 33.0976
rfemur -31.6333 7.47279 21.3541
rtibia 21.1831
rfoot 2.56283 -10.7684
rtoes -9.13936
lfemur 20.8879 -1.92188 -29.2237
ltibia 43.9346
lfoot 28.6257 -2.66591
ltoes -7.42702
121
root -0.0971625 18.0039 38.9342 3.62998 -7.50419 0.706407
lowerback 12.0025 -3.1978 -2.42404
upperback 0.76516 -4.54816 0.386894
thorax -5.6941 -2.16795 2.51958
lowerneck -7.47866 3.76178 -0.644485
upperneck -6.91442 4.98215 -1.31677
head -0.878835 2.50039 -0.22809
rclavicle 5.27276e-014 3.57812e-015
rhumerus -59.1475 3.58149 -84.0014
rradius 96.797
rwrist -9.89393
rhand -36.3573 34.009
rfingers 7.12502
rthumb -9.45459 4.24105
lclavicle 5.27276e-014 3.57812e-015
lhumerus -24.2713 -23.0001 91.5789
lradius 114.313
lwrist 18.9526
lhand -33.445 3.26014
lfingers 7.12502
lthumb -6.64377 33.1359
rfemur -30.2795 6.31426 21.651
rtibia 21.6553
rfoot 2.95424 -9.84973
rtoes -7.58263
lfemur 19.1945 -1.03652 -29.0344
ltibia 49.5179
lfoot 29.3809 -3.27904
ltoes -7.09024
122
root -0.082269 17.9121 39.4597 3.12832 -7.50556 0.286489
lowerback 11.973 -3.12743 -1.52036
upperback 1.10584 -4.32322 0.487949
thorax -5.38951 -2.08725 2.06933
lowerneck -6.96555 3.62653 -1.01034
upperneck -7.04397 4.81894 -1.34657
head -1.00959 2.43081 -0.193285
rclavicle -1.9953e-014 9.93923e-017
rhumerus -58.4815 3.86006 -84.085
rradius 97.3338
rwrist -10.4659
rhand -35.842 33.3888
rfingers 7.12502
rthumb -8.95738 3.59894
lclavicle -1.9953e-014 9.93923e-017
lhumerus -25.1994 -22.1171 92.0425
lradius 113.376
lwrist 17.5875
lhand -33.6319 4.01722
lfingers 7.12502
lthumb -6.82419 33.8872
rfemur -29.1798 4.91091 22.821
rtibia 23.1744
rfoot 3.32195 -7.52885
rtoes -3.20067
lfemur 17.6749 0.122175 -27.8744
ltibia 54.9765
lfoot 29.9098 -3.29436
ltoes -8.38567
123
root -0.0763315 17.8223 39.9965 2.45774 -7.65853 -0.0679813
lowerback 12.8206 -3.03756 -0.825363
upperback 1.06891 -4.11443 0.516012
thorax -5.9555 -1.98997 1.73266
lowerneck -6.54224 3.63503 -0.908649
upperneck -6.55751 4.82143 -1.53955
head -0.919538 2.4301 -0.269577
rclavicle -1.90461e-014 -1.51076e-014
rhumerus -58.0277 4.18954 -84.4294
rradius 97.6636
rwrist -10.9174
rhand -35.932 33.648
rfingers 7.12502
rthumb -9.04422 3.86185
lclavicle -1.90461e-014 -1.51076e-014
lhumerus -26.5121 -21.235 92.2617
lradius 112.287
lwrist 16.4881
lhand -33.9717 4.60539
lfingers 7.12502
lthumb -7.15224 34.4645
rfemur -28.0892 3.00213 24.1499
rtibia 25.261
rfoot 2.70077 -2.59386
rtoes 2.3055
lfemur 16.3851 1.45242 -26.6878
ltibia 60.386
lfoot 29.8321 -2.55893
ltoes -10.7772
124
root -0.0649844 17.7199 40.5192 1.66794 -7.61687 0.0217475
lowerback 13.2971 -2.7614 -0.306566
upperback 1.02603 -3.68435 0.361004
thorax -6.32263 -1.78916 1.23326
lowerneck -5.01819 3.28744 -1.11853
upperneck -6.59812 4.35632 -1.4099
head -1.18929 2.20907 -0.230898
rclavicle 4.5969e-016 3.97569e-015
rhumerus -57.6665 3.82312 -84.4264
rradius 98.0724
rwrist -11.2666
rhand -36.1189 33.7994
rfingers 7.12502
rthumb -9.22456 4.02117
lclavicle 4.5969e-016 3.97569e-015
lhumerus -28.0125 -20.9228 92.8203
lradius 111.226
lwrist 15.618
lhand -34.4453 4.50032
lfingers 7.12502
lthumb -7.60939 34.3434
rfemur -26.094 1.14913 24.7075
rtibia 26.1511
rfoot 1.13648 1.5867
rtoes 6.41147
lfemur 14.8728 2.66868 -25.9165
ltibia 66.4328
lfoot 28.6044 -1.5006
ltoes -13.0129
